<svg xmlns="http://www.w3.org/2000/svg" width="35" height="35" viewBox="0 0 35 35">
    <g fill="#0294FF" fill-rule="nonzero" stroke="#0294FF" stroke-width=".5">
        <path d="M23.128 4H11.845c-1.004 0-1.82.817-1.82 1.82v23.545c0 1.004.816 1.82 1.82 1.82h11.283c1.004 0 1.82-.816 1.82-1.82V5.82c0-1.003-.816-1.82-1.82-1.82zm1.14 25.365c0 .63-.511 1.141-1.14 1.141H11.845c-.629 0-1.14-.512-1.14-1.14v-3.072h13.564v3.071zm0-3.75H10.706V7.767h13.564v17.848zm0-18.528H10.706V5.82c0-.629.511-1.14 1.14-1.14h11.283c.629 0 1.14.511 1.14 1.14v1.267z"/>
        <path d="M17.487 27.06a1.4 1.4 0 0 0-1.4 1.4 1.4 1.4 0 0 0 1.4 1.398 1.4 1.4 0 0 0 1.399-1.4 1.4 1.4 0 0 0-1.4-1.398zm0 2.118a.72.72 0 0 1 0-1.438.72.72 0 0 1 0 1.438z"/>
    </g>
</svg>
